%FSLAX35Y35*%
%MOIN*%
%IN16=CoppertopL1(X.Top)*%
%ADD10C,0.00591*%
%ADD11C,0.00512*%
%ADD12C,0.00650*%
%ADD13C,0.00709*%
%ADD14C,0.00768*%
%ADD15C,0.01024*%
%ADD16C,0.01100*%
%ADD17C,0.01102*%
%ADD18C,0.01181*%
%ADD19C,0.01969*%
%ADD20C,0.02362*%
%ADD21C,0.03937*%
%ADD22C,0.03938*%
%ADD23C,0.04000*%
%ADD24C,0.19685*%
%AMR_25*21,1,0.05000,0.09843,0,0,180.000*%
%ADD25R_25*%
%AMR_26*21,1,0.05000,0.09843,0,0,270.000*%
%ADD26R_26*%
%AMR_27*21,1,0.06500,0.08500,0,0,0.000*%
%ADD27R_27*%
%AMR_28*21,1,0.06850,0.09843,0,0,90.000*%
%ADD28R_28*%
%AMR_29*21,1,0.06850,0.09843,0,0,180.000*%
%ADD29R_29*%
%AMR_30*21,1,0.06850,0.09843,0,0,270.000*%
%ADD30R_30*%
%AMOCT_31*4,1,8,0.031496,0.015748,0.015748,0.031496,-0.015748,0.031496,-0.031496,0.015748,-0.031496,-0.015748,-0.015748,-0.031496,0.015748,-0.031496,0.031496,-0.015748,0.031496,0.015748,90.000*%
%ADD31OCT_31*%
%AMOCT_32*4,1,8,0.034252,0.032087,0.017126,0.049213,-0.017126,0.049213,-0.034252,0.032087,-0.034252,-0.032087,-0.017126,-0.049213,0.017126,-0.049213,0.034252,-0.032087,0.034252,0.032087,90.000*%
%ADD32OCT_32*%
%AMOCT_33*4,1,8,0.034252,0.032087,0.017126,0.049213,-0.017126,0.049213,-0.034252,0.032087,-0.034252,-0.032087,-0.017126,-0.049213,0.017126,-0.049213,0.034252,-0.032087,0.034252,0.032087,180.000*%
%ADD33OCT_33*%
%AMOCT_34*4,1,8,0.034252,0.032087,0.017126,0.049213,-0.017126,0.049213,-0.034252,0.032087,-0.034252,-0.032087,-0.017126,-0.049213,0.017126,-0.049213,0.034252,-0.032087,0.034252,0.032087,270.000*%
%ADD34OCT_34*%
%AMOCT_35*4,1,8,0.035433,0.017717,0.017717,0.035433,-0.017717,0.035433,-0.035433,0.017717,-0.035433,-0.017717,-0.017717,-0.035433,0.017717,-0.035433,0.035433,-0.017717,0.035433,0.017717,0.000*%
%ADD35OCT_35*%
%AMOCT_36*4,1,8,0.035433,0.017717,0.017717,0.035433,-0.017717,0.035433,-0.035433,0.017717,-0.035433,-0.017717,-0.017717,-0.035433,0.017717,-0.035433,0.035433,-0.017717,0.035433,0.017717,90.000*%
%ADD36OCT_36*%
%AMOCT_37*4,1,8,0.035433,0.017717,0.017717,0.035433,-0.017717,0.035433,-0.035433,0.017717,-0.035433,-0.017717,-0.017717,-0.035433,0.017717,-0.035433,0.035433,-0.017717,0.035433,0.017717,180.000*%
%ADD37OCT_37*%
%AMOCT_38*4,1,8,0.037402,0.018701,0.018701,0.037402,-0.018701,0.037402,-0.037402,0.018701,-0.037402,-0.018701,-0.018701,-0.037402,0.018701,-0.037402,0.037402,-0.018701,0.037402,0.018701,90.000*%
%ADD38OCT_38*%
%AMOCT_39*4,1,8,0.039370,0.019685,0.019685,0.039370,-0.019685,0.039370,-0.039370,0.019685,-0.039370,-0.019685,-0.019685,-0.039370,0.019685,-0.039370,0.039370,-0.019685,0.039370,0.019685,0.000*%
%ADD39OCT_39*%
%AMOCT_40*4,1,8,0.039370,0.019685,0.019685,0.039370,-0.019685,0.039370,-0.039370,0.019685,-0.039370,-0.019685,-0.019685,-0.039370,0.019685,-0.039370,0.039370,-0.019685,0.039370,0.019685,90.000*%
%ADD40OCT_40*%
%AMOCT_41*4,1,8,0.039370,0.019685,0.019685,0.039370,-0.019685,0.039370,-0.039370,0.019685,-0.039370,-0.019685,-0.019685,-0.039370,0.019685,-0.039370,0.039370,-0.019685,0.039370,0.019685,270.000*%
%ADD41OCT_41*%
%AMOCT_42*4,1,8,0.044291,0.022146,0.022146,0.044291,-0.022146,0.044291,-0.044291,0.022146,-0.044291,-0.022146,-0.022146,-0.044291,0.022146,-0.044291,0.044291,-0.022146,0.044291,0.022146,90.000*%
%ADD42OCT_42*%
%AMOCT_43*4,1,8,0.044291,0.022146,0.022146,0.044291,-0.022146,0.044291,-0.044291,0.022146,-0.044291,-0.022146,-0.022146,-0.044291,0.022146,-0.044291,0.044291,-0.022146,0.044291,0.022146,270.000*%
%ADD43OCT_43*%
%AMOCT_44*4,1,8,0.061024,0.030512,0.030512,0.061024,-0.030512,0.061024,-0.061024,0.030512,-0.061024,-0.030512,-0.030512,-0.061024,0.030512,-0.061024,0.061024,-0.030512,0.061024,0.030512,180.000*%
%ADD44OCT_44*%
%AMOCT_45*4,1,8,0.062992,0.019685,0.043307,0.039370,-0.043307,0.039370,-0.062992,0.019685,-0.062992,-0.019685,-0.043307,-0.039370,0.043307,-0.039370,0.062992,-0.019685,0.062992,0.019685,90.000*%
%ADD45OCT_45*%
%AMOCT_46*4,1,8,0.062992,0.019685,0.043307,0.039370,-0.043307,0.039370,-0.062992,0.019685,-0.062992,-0.019685,-0.043307,-0.039370,0.043307,-0.039370,0.062992,-0.019685,0.062992,0.019685,270.000*%
%ADD46OCT_46*%
%AMOCT_47*4,1,8,0.072835,0.036417,0.036417,0.072835,-0.036417,0.072835,-0.072835,0.036417,-0.072835,-0.036417,-0.036417,-0.072835,0.036417,-0.072835,0.072835,-0.036417,0.072835,0.036417,180.000*%
%ADD47OCT_47*%
%AMO_48*20,1,0.05000,0.00000,0.02421,0.00000,-0.02421,0*1,1,0.05000,0.00000,0.02421*1,1,0.05000,0.00000,-0.02421*%
%ADD48O_48*%
%AMO_49*20,1,0.05000,-0.02421,0.00000,0.02421,0.00000,0*1,1,0.05000,-0.02421,0.00000*1,1,0.05000,0.02421,0.00000*%
%ADD49O_49*%
%AMO_50*20,1,0.06500,0.00000,-0.01000,0.00000,0.01000,0*1,1,0.06500,0.00000,-0.01000*1,1,0.06500,0.00000,0.01000*%
%ADD50O_50*%
%ADD51C,0.12500*%
%AMRR_52*21,1,0.06299,0.05039,0,0,90.000*21,1,0.05039,0.06299,0,0,90.000*1,1,0.01260,-0.02520,0.02520*1,1,0.01260,0.02520,-0.02520*1,1,0.01260,0.02520,0.02520*1,1,0.01260,-0.02520,-0.02520*%
%ADD52RR_52*%
%AMRR_53*21,1,0.09843,0.12795,0,0,90.000*21,1,0.08858,0.13780,0,0,90.000*1,1,0.00984,-0.06398,0.04429*1,1,0.00984,0.06398,-0.04429*1,1,0.00984,0.06398,0.04429*1,1,0.00984,-0.06398,-0.04429*%
%ADD53RR_53*%
G54D12*
X6643Y397874D02*
X7726Y398464D01*
X8267Y399645D01*
X6643Y397874D02*
X5561Y397874D01*
X4478Y398464D01*
X3937Y399645D01*
X3937Y403188D01*
X4478Y404370D01*
X5561Y404960D01*
X6643Y404960D01*
X7726Y404370D01*
X8267Y403188D01*
X9566Y402007D02*
X9566Y399055D01*
X10649Y397874D01*
X12814Y397874D01*
X13897Y399055D01*
X13897Y402007D02*
X13897Y397874D01*
X15196Y402007D02*
X15196Y397874D01*
X15196Y400236D02*
X16820Y402007D01*
X19527Y402007D01*
X20826Y402007D02*
X20826Y397874D01*
X20826Y400236D02*
X22450Y402007D01*
X25157Y402007D01*
X30787Y398464D02*
X29704Y397874D01*
X27539Y397874D01*
X26456Y399055D01*
X26456Y400826D01*
X27539Y402007D01*
X29704Y402007D01*
X30787Y401417D01*
X30787Y400826D01*
X29704Y400236D01*
X26456Y400236D01*
X32086Y397874D02*
X32086Y402007D01*
X32086Y400826D02*
X33169Y402007D01*
X35334Y402007D01*
X36417Y400826D01*
X36417Y397874D01*
X37716Y404960D02*
X37716Y399055D01*
X38799Y397874D01*
X42047Y397874D01*
X37716Y402007D02*
X39881Y402007D01*
X48976Y404960D02*
X48976Y397874D01*
X48976Y401417D02*
X51683Y401417D01*
X52765Y402007D01*
X53307Y403188D01*
X52765Y404370D01*
X51683Y404960D01*
X48976Y404960D01*
X54606Y402007D02*
X54606Y397874D01*
X54606Y400236D02*
X56230Y402007D01*
X58937Y402007D01*
X60236Y400826D02*
X60236Y399055D01*
X60236Y400826D02*
X61318Y402007D01*
X63484Y402007D01*
X64566Y400826D01*
X64566Y399055D01*
X63484Y397874D01*
X61318Y397874D01*
X60236Y399055D01*
X65866Y395511D02*
X69114Y395511D01*
X70196Y396692D01*
X70196Y402007D01*
X68572Y402007D01*
X70196Y404960D02*
X70196Y404370D01*
X75826Y398464D02*
X74744Y397874D01*
X72578Y397874D01*
X71496Y399055D01*
X71496Y400826D01*
X72578Y402007D01*
X74744Y402007D01*
X75826Y401417D01*
X75826Y400826D01*
X74744Y400236D01*
X71496Y400236D01*
X81456Y401417D02*
X80374Y402007D01*
X78208Y402007D01*
X77125Y400826D01*
X77125Y399055D01*
X78208Y397874D01*
X80374Y397874D01*
X81456Y398464D01*
X82755Y404960D02*
X82755Y399055D01*
X83838Y397874D01*
X87086Y397874D01*
X82755Y402007D02*
X84921Y402007D01*
X94015Y395511D02*
X94015Y403779D01*
X95098Y404960D01*
X98346Y404960D01*
X94015Y400236D02*
X96181Y400236D01*
X99645Y402007D02*
X99645Y397874D01*
X99645Y400236D02*
X101269Y402007D01*
X103976Y402007D01*
X105275Y400826D02*
X105275Y399055D01*
X105275Y400826D02*
X106358Y402007D01*
X108523Y402007D01*
X109606Y400826D01*
X109606Y399055D01*
X108523Y397874D01*
X106358Y397874D01*
X105275Y399055D01*
X115236Y397874D02*
X115236Y400826D01*
X114153Y402007D01*
X113070Y397874D02*
X113070Y400826D01*
X110905Y402007D02*
X114153Y402007D01*
X110905Y397874D02*
X110905Y402007D01*
X113070Y400826D02*
X111988Y402007D01*
X122165Y404960D02*
X126496Y404960D01*
X124330Y404960D02*
X124330Y397874D01*
X127795Y397874D02*
X127795Y402598D01*
X127795Y400236D02*
X132125Y400236D01*
X132125Y402598D02*
X132125Y397874D01*
X127795Y402598D02*
X129960Y404960D01*
X132125Y402598D01*
X133425Y404960D02*
X133425Y397874D01*
X133425Y401417D02*
X136131Y401417D01*
X137214Y402007D01*
X137755Y403188D01*
X137214Y404370D01*
X136131Y404960D01*
X133425Y404960D01*
X135590Y401417D02*
X137755Y397874D01*
X140679Y404960D02*
X139596Y404370D01*
X139055Y403188D01*
X139055Y399645D01*
X139596Y398464D01*
X140679Y397874D01*
X141761Y397874D01*
X142844Y398464D01*
X143385Y399645D01*
X143385Y401417D01*
X142303Y401417D01*
X140679Y404960D02*
X141761Y404960D01*
X142844Y404370D01*
X144685Y404960D02*
X144685Y397874D01*
X149015Y397874D01*
X144685Y401417D02*
X146850Y401417D01*
X144685Y404960D02*
X149015Y404960D01*
X150314Y404960D02*
X154645Y404960D01*
X152480Y404960D02*
X152480Y397874D01*
X161574Y397874D02*
X161574Y404960D01*
X165905Y397874D01*
X165905Y404960D01*
X169911Y397874D02*
X170994Y398464D01*
X171535Y399645D01*
X169911Y397874D02*
X168828Y397874D01*
X167746Y398464D01*
X167204Y399645D01*
X167204Y403188D01*
X167746Y404370D01*
X168828Y404960D01*
X169911Y404960D01*
X170994Y404370D01*
X171535Y403188D01*
X178464Y402007D02*
X180629Y397874D01*
X182795Y402007D01*
X188425Y398464D02*
X187342Y397874D01*
X185177Y397874D01*
X184094Y399055D01*
X184094Y400826D01*
X185177Y402007D01*
X187342Y402007D01*
X188425Y401417D01*
X188425Y400826D01*
X187342Y400236D01*
X184094Y400236D01*
X189724Y402007D02*
X189724Y397874D01*
X189724Y400236D02*
X191348Y402007D01*
X194055Y402007D01*
X195354Y397874D02*
X199143Y397874D01*
X199685Y399055D01*
X199143Y400236D01*
X195895Y400236D01*
X195354Y401417D01*
X195895Y402007D01*
X199685Y402007D01*
X200984Y397874D02*
X205314Y397874D01*
X203149Y397874D02*
X203149Y402007D01*
X203149Y404960D02*
X203149Y404370D01*
X201525Y402007D02*
X203149Y402007D01*
X206614Y400826D02*
X206614Y399055D01*
X206614Y400826D02*
X207696Y402007D01*
X209862Y402007D01*
X210944Y400826D01*
X210944Y399055D01*
X209862Y397874D01*
X207696Y397874D01*
X206614Y399055D01*
X212244Y397874D02*
X212244Y402007D01*
X212244Y400826D02*
X213326Y402007D01*
X215492Y402007D01*
X216574Y400826D01*
X216574Y397874D01*
X218956Y398464D02*
X218956Y397874D01*
X219498Y397874D01*
X219498Y398464D01*
X218956Y398464D01*
X219498Y401417D02*
X218956Y401417D01*
X218956Y400826D01*
X219498Y400826D01*
X219498Y401417D01*
X231840Y397874D02*
X232923Y398464D01*
X233464Y399645D01*
X231840Y397874D02*
X230757Y397874D01*
X229675Y398464D01*
X229133Y399645D01*
X229133Y403188D01*
X229675Y404370D01*
X230757Y404960D01*
X231840Y404960D01*
X232923Y404370D01*
X233464Y403188D01*
X234763Y400826D02*
X234763Y399055D01*
X234763Y400826D02*
X235846Y402007D01*
X238011Y402007D01*
X239094Y400826D01*
X239094Y399055D01*
X238011Y397874D01*
X235846Y397874D01*
X234763Y399055D01*
X244724Y397874D02*
X244724Y400826D01*
X243641Y402007D01*
X242559Y397874D02*
X242559Y400826D01*
X240393Y402007D02*
X243641Y402007D01*
X240393Y397874D02*
X240393Y402007D01*
X242559Y400826D02*
X241476Y402007D01*
X250354Y397874D02*
X250354Y400826D01*
X249271Y402007D01*
X248188Y397874D02*
X248188Y400826D01*
X246023Y402007D02*
X249271Y402007D01*
X246023Y397874D02*
X246023Y402007D01*
X248188Y400826D02*
X247106Y402007D01*
X255984Y398464D02*
X254901Y397874D01*
X252736Y397874D01*
X251653Y399055D01*
X251653Y400826D01*
X252736Y402007D01*
X254901Y402007D01*
X255984Y401417D01*
X255984Y400826D01*
X254901Y400236D01*
X251653Y400236D01*
X257283Y402007D02*
X257283Y397874D01*
X257283Y400236D02*
X258907Y402007D01*
X261614Y402007D01*
X267244Y401417D02*
X266161Y402007D01*
X263996Y402007D01*
X262913Y400826D01*
X262913Y399055D01*
X263996Y397874D01*
X266161Y397874D01*
X267244Y398464D01*
X268543Y397874D02*
X272874Y397874D01*
X270708Y397874D02*
X270708Y402007D01*
X270708Y404960D02*
X270708Y404370D01*
X269084Y402007D02*
X270708Y402007D01*
X274173Y399055D02*
X275255Y397874D01*
X277421Y397874D01*
X278503Y399055D01*
X274173Y399055D02*
X274173Y400826D01*
X275255Y402007D01*
X277421Y402007D01*
X278503Y400826D01*
X278503Y397874D01*
X279803Y397874D02*
X284133Y397874D01*
X280885Y404960D02*
X281968Y404960D01*
X281968Y397874D01*
X291062Y402007D02*
X291062Y399055D01*
X292145Y397874D01*
X294311Y397874D01*
X295393Y399055D01*
X295393Y402007D02*
X295393Y397874D01*
X296692Y397874D02*
X300482Y397874D01*
X301023Y399055D01*
X300482Y400236D01*
X297234Y400236D01*
X296692Y401417D01*
X297234Y402007D01*
X301023Y402007D01*
X306653Y398464D02*
X305570Y397874D01*
X303405Y397874D01*
X302322Y399055D01*
X302322Y400826D01*
X303405Y402007D01*
X305570Y402007D01*
X306653Y401417D01*
X306653Y400826D01*
X305570Y400236D01*
X302322Y400236D01*
X313582Y397874D02*
X317913Y397874D01*
X315748Y397874D02*
X315748Y402007D01*
X315748Y404960D02*
X315748Y404370D01*
X314124Y402007D02*
X315748Y402007D01*
X319212Y397874D02*
X323001Y397874D01*
X323543Y399055D01*
X323001Y400236D01*
X319753Y400236D01*
X319212Y401417D01*
X319753Y402007D01*
X323543Y402007D01*
X334803Y401417D02*
X333720Y402007D01*
X331555Y402007D01*
X330472Y400826D01*
X330472Y399055D01*
X331555Y397874D01*
X333720Y397874D01*
X334803Y398464D01*
X336102Y402007D02*
X336102Y397874D01*
X336102Y400236D02*
X337726Y402007D01*
X340433Y402007D01*
X341732Y397874D02*
X346062Y397874D01*
X343897Y397874D02*
X343897Y402007D01*
X343897Y404960D02*
X343897Y404370D01*
X342273Y402007D02*
X343897Y402007D01*
X351692Y397874D02*
X351692Y400826D01*
X350610Y402007D01*
X349527Y397874D02*
X349527Y400826D01*
X347362Y402007D02*
X350610Y402007D01*
X347362Y397874D02*
X347362Y402007D01*
X349527Y400826D02*
X348444Y402007D01*
X352992Y397874D02*
X357322Y397874D01*
X355157Y397874D02*
X355157Y402007D01*
X355157Y404960D02*
X355157Y404370D01*
X353533Y402007D02*
X355157Y402007D01*
X358622Y397874D02*
X358622Y402007D01*
X358622Y400826D02*
X359704Y402007D01*
X361870Y402007D01*
X362952Y400826D01*
X362952Y397874D01*
X364251Y399055D02*
X365334Y397874D01*
X367500Y397874D01*
X368582Y399055D01*
X364251Y399055D02*
X364251Y400826D01*
X365334Y402007D01*
X367500Y402007D01*
X368582Y400826D01*
X368582Y397874D01*
X369881Y397874D02*
X374212Y397874D01*
X370964Y404960D02*
X372047Y404960D01*
X372047Y397874D01*
X377677Y397874D02*
X377677Y398464D01*
X378218Y398464D01*
X378218Y397874D01*
X377677Y397874D01*
X377677Y400236D02*
X378218Y400236D01*
X378759Y403779D01*
X378218Y404960D01*
X377677Y404960D01*
X377135Y403779D01*
X377677Y400236D01*
X6643Y397874D02*
X7726Y398464D01*
X8267Y399645D01*
X6643Y397874D02*
X5561Y397874D01*
X4478Y398464D01*
X3937Y399645D01*
X3937Y403188D01*
X4478Y404370D01*
X5561Y404960D01*
X6643Y404960D01*
X7726Y404370D01*
X8267Y403188D01*
X9566Y402007D02*
X9566Y399055D01*
X10649Y397874D01*
X12814Y397874D01*
X13897Y399055D01*
X13897Y402007D02*
X13897Y397874D01*
X15196Y402007D02*
X15196Y397874D01*
X15196Y400236D02*
X16820Y402007D01*
X19527Y402007D01*
X20826Y402007D02*
X20826Y397874D01*
X20826Y400236D02*
X22450Y402007D01*
X25157Y402007D01*
X30787Y398464D02*
X29704Y397874D01*
X27539Y397874D01*
X26456Y399055D01*
X26456Y400826D01*
X27539Y402007D01*
X29704Y402007D01*
X30787Y401417D01*
X30787Y400826D01*
X29704Y400236D01*
X26456Y400236D01*
X32086Y397874D02*
X32086Y402007D01*
X32086Y400826D02*
X33169Y402007D01*
X35334Y402007D01*
X36417Y400826D01*
X36417Y397874D01*
X37716Y404960D02*
X37716Y399055D01*
X38799Y397874D01*
X42047Y397874D01*
X37716Y402007D02*
X39881Y402007D01*
X48976Y404960D02*
X48976Y397874D01*
X48976Y401417D02*
X51683Y401417D01*
X52765Y402007D01*
X53307Y403188D01*
X52765Y404370D01*
X51683Y404960D01*
X48976Y404960D01*
X54606Y402007D02*
X54606Y397874D01*
X54606Y400236D02*
X56230Y402007D01*
X58937Y402007D01*
X60236Y400826D02*
X60236Y399055D01*
X60236Y400826D02*
X61318Y402007D01*
X63484Y402007D01*
X64566Y400826D01*
X64566Y399055D01*
X63484Y397874D01*
X61318Y397874D01*
X60236Y399055D01*
X65866Y395511D02*
X69114Y395511D01*
X70196Y396692D01*
X70196Y402007D01*
X68572Y402007D01*
X70196Y404960D02*
X70196Y404370D01*
X75826Y398464D02*
X74744Y397874D01*
X72578Y397874D01*
X71496Y399055D01*
X71496Y400826D01*
X72578Y402007D01*
X74744Y402007D01*
X75826Y401417D01*
X75826Y400826D01*
X74744Y400236D01*
X71496Y400236D01*
X81456Y401417D02*
X80374Y402007D01*
X78208Y402007D01*
X77125Y400826D01*
X77125Y399055D01*
X78208Y397874D01*
X80374Y397874D01*
X81456Y398464D01*
X82755Y404960D02*
X82755Y399055D01*
X83838Y397874D01*
X87086Y397874D01*
X82755Y402007D02*
X84921Y402007D01*
X94015Y395511D02*
X94015Y403779D01*
X95098Y404960D01*
X98346Y404960D01*
X94015Y400236D02*
X96181Y400236D01*
X99645Y402007D02*
X99645Y397874D01*
X99645Y400236D02*
X101269Y402007D01*
X103976Y402007D01*
X105275Y400826D02*
X105275Y399055D01*
X105275Y400826D02*
X106358Y402007D01*
X108523Y402007D01*
X109606Y400826D01*
X109606Y399055D01*
X108523Y397874D01*
X106358Y397874D01*
X105275Y399055D01*
X115236Y397874D02*
X115236Y400826D01*
X114153Y402007D01*
X113070Y397874D02*
X113070Y400826D01*
X110905Y402007D02*
X114153Y402007D01*
X110905Y397874D02*
X110905Y402007D01*
X113070Y400826D02*
X111988Y402007D01*
X122165Y404960D02*
X126496Y404960D01*
X124330Y404960D02*
X124330Y397874D01*
X127795Y397874D02*
X127795Y402598D01*
X127795Y400236D02*
X132125Y400236D01*
X132125Y402598D02*
X132125Y397874D01*
X127795Y402598D02*
X129960Y404960D01*
X132125Y402598D01*
X133425Y404960D02*
X133425Y397874D01*
X133425Y401417D02*
X136131Y401417D01*
X137214Y402007D01*
X137755Y403188D01*
X137214Y404370D01*
X136131Y404960D01*
X133425Y404960D01*
X135590Y401417D02*
X137755Y397874D01*
X140679Y404960D02*
X139596Y404370D01*
X139055Y403188D01*
X139055Y399645D01*
X139596Y398464D01*
X140679Y397874D01*
X141761Y397874D01*
X142844Y398464D01*
X143385Y399645D01*
X143385Y401417D01*
X142303Y401417D01*
X140679Y404960D02*
X141761Y404960D01*
X142844Y404370D01*
X144685Y404960D02*
X144685Y397874D01*
X149015Y397874D01*
X144685Y401417D02*
X146850Y401417D01*
X144685Y404960D02*
X149015Y404960D01*
X150314Y404960D02*
X154645Y404960D01*
X152480Y404960D02*
X152480Y397874D01*
X161574Y397874D02*
X161574Y404960D01*
X165905Y397874D01*
X165905Y404960D01*
X169911Y397874D02*
X170994Y398464D01*
X171535Y399645D01*
X169911Y397874D02*
X168828Y397874D01*
X167746Y398464D01*
X167204Y399645D01*
X167204Y403188D01*
X167746Y404370D01*
X168828Y404960D01*
X169911Y404960D01*
X170994Y404370D01*
X171535Y403188D01*
X178464Y402007D02*
X180629Y397874D01*
X182795Y402007D01*
X188425Y398464D02*
X187342Y397874D01*
X185177Y397874D01*
X184094Y399055D01*
X184094Y400826D01*
X185177Y402007D01*
X187342Y402007D01*
X188425Y401417D01*
X188425Y400826D01*
X187342Y400236D01*
X184094Y400236D01*
X189724Y402007D02*
X189724Y397874D01*
X189724Y400236D02*
X191348Y402007D01*
X194055Y402007D01*
X195354Y397874D02*
X199143Y397874D01*
X199685Y399055D01*
X199143Y400236D01*
X195895Y400236D01*
X195354Y401417D01*
X195895Y402007D01*
X199685Y402007D01*
X200984Y397874D02*
X205314Y397874D01*
X203149Y397874D02*
X203149Y402007D01*
X203149Y404960D02*
X203149Y404370D01*
X201525Y402007D02*
X203149Y402007D01*
X206614Y400826D02*
X206614Y399055D01*
X206614Y400826D02*
X207696Y402007D01*
X209862Y402007D01*
X210944Y400826D01*
X210944Y399055D01*
X209862Y397874D01*
X207696Y397874D01*
X206614Y399055D01*
X212244Y397874D02*
X212244Y402007D01*
X212244Y400826D02*
X213326Y402007D01*
X215492Y402007D01*
X216574Y400826D01*
X216574Y397874D01*
X218956Y398464D02*
X218956Y397874D01*
X219498Y397874D01*
X219498Y398464D01*
X218956Y398464D01*
X219498Y401417D02*
X218956Y401417D01*
X218956Y400826D01*
X219498Y400826D01*
X219498Y401417D01*
X231840Y397874D02*
X232923Y398464D01*
X233464Y399645D01*
X231840Y397874D02*
X230757Y397874D01*
X229675Y398464D01*
X229133Y399645D01*
X229133Y403188D01*
X229675Y404370D01*
X230757Y404960D01*
X231840Y404960D01*
X232923Y404370D01*
X233464Y403188D01*
X234763Y400826D02*
X234763Y399055D01*
X234763Y400826D02*
X235846Y402007D01*
X238011Y402007D01*
X239094Y400826D01*
X239094Y399055D01*
X238011Y397874D01*
X235846Y397874D01*
X234763Y399055D01*
X244724Y397874D02*
X244724Y400826D01*
X243641Y402007D01*
X242559Y397874D02*
X242559Y400826D01*
X240393Y402007D02*
X243641Y402007D01*
X240393Y397874D02*
X240393Y402007D01*
X242559Y400826D02*
X241476Y402007D01*
X250354Y397874D02*
X250354Y400826D01*
X249271Y402007D01*
X248188Y397874D02*
X248188Y400826D01*
X246023Y402007D02*
X249271Y402007D01*
X246023Y397874D02*
X246023Y402007D01*
X248188Y400826D02*
X247106Y402007D01*
X255984Y398464D02*
X254901Y397874D01*
X252736Y397874D01*
X251653Y399055D01*
X251653Y400826D01*
X252736Y402007D01*
X254901Y402007D01*
X255984Y401417D01*
X255984Y400826D01*
X254901Y400236D01*
X251653Y400236D01*
X257283Y402007D02*
X257283Y397874D01*
X257283Y400236D02*
X258907Y402007D01*
X261614Y402007D01*
X267244Y401417D02*
X266161Y402007D01*
X263996Y402007D01*
X262913Y400826D01*
X262913Y399055D01*
X263996Y397874D01*
X266161Y397874D01*
X267244Y398464D01*
X268543Y397874D02*
X272874Y397874D01*
X270708Y397874D02*
X270708Y402007D01*
X270708Y404960D02*
X270708Y404370D01*
X269084Y402007D02*
X270708Y402007D01*
X274173Y399055D02*
X275255Y397874D01*
X277421Y397874D01*
X278503Y399055D01*
X274173Y399055D02*
X274173Y400826D01*
X275255Y402007D01*
X277421Y402007D01*
X278503Y400826D01*
X278503Y397874D01*
X279803Y397874D02*
X284133Y397874D01*
X280885Y404960D02*
X281968Y404960D01*
X281968Y397874D01*
X291062Y402007D02*
X291062Y399055D01*
X292145Y397874D01*
X294311Y397874D01*
X295393Y399055D01*
X295393Y402007D02*
X295393Y397874D01*
X296692Y397874D02*
X300482Y397874D01*
X301023Y399055D01*
X300482Y400236D01*
X297234Y400236D01*
X296692Y401417D01*
X297234Y402007D01*
X301023Y402007D01*
X306653Y398464D02*
X305570Y397874D01*
X303405Y397874D01*
X302322Y399055D01*
X302322Y400826D01*
X303405Y402007D01*
X305570Y402007D01*
X306653Y401417D01*
X306653Y400826D01*
X305570Y400236D01*
X302322Y400236D01*
X313582Y397874D02*
X317913Y397874D01*
X315748Y397874D02*
X315748Y402007D01*
X315748Y404960D02*
X315748Y404370D01*
X314124Y402007D02*
X315748Y402007D01*
X319212Y397874D02*
X323001Y397874D01*
X323543Y399055D01*
X323001Y400236D01*
X319753Y400236D01*
X319212Y401417D01*
X319753Y402007D01*
X323543Y402007D01*
X334803Y401417D02*
X333720Y402007D01*
X331555Y402007D01*
X330472Y400826D01*
X330472Y399055D01*
X331555Y397874D01*
X333720Y397874D01*
X334803Y398464D01*
X336102Y402007D02*
X336102Y397874D01*
X336102Y400236D02*
X337726Y402007D01*
X340433Y402007D01*
X341732Y397874D02*
X346062Y397874D01*
X343897Y397874D02*
X343897Y402007D01*
X343897Y404960D02*
X343897Y404370D01*
X342273Y402007D02*
X343897Y402007D01*
X351692Y397874D02*
X351692Y400826D01*
X350610Y402007D01*
X349527Y397874D02*
X349527Y400826D01*
X347362Y402007D02*
X350610Y402007D01*
X347362Y397874D02*
X347362Y402007D01*
X349527Y400826D02*
X348444Y402007D01*
X352992Y397874D02*
X357322Y397874D01*
X355157Y397874D02*
X355157Y402007D01*
X355157Y404960D02*
X355157Y404370D01*
X353533Y402007D02*
X355157Y402007D01*
X358622Y397874D02*
X358622Y402007D01*
X358622Y400826D02*
X359704Y402007D01*
X361870Y402007D01*
X362952Y400826D01*
X362952Y397874D01*
X364251Y399055D02*
X365334Y397874D01*
X367500Y397874D01*
X368582Y399055D01*
X364251Y399055D02*
X364251Y400826D01*
X365334Y402007D01*
X367500Y402007D01*
X368582Y400826D01*
X368582Y397874D01*
X369881Y397874D02*
X374212Y397874D01*
X370964Y404960D02*
X372047Y404960D01*
X372047Y397874D01*
X377677Y397874D02*
X377677Y398464D01*
X378218Y398464D01*
X378218Y397874D01*
X377677Y397874D01*
X377677Y400236D02*
X378218Y400236D01*
X378759Y403779D01*
X378218Y404960D01*
X377677Y404960D01*
X377135Y403779D01*
X377677Y400236D01*
G54D16*
X491085Y154926D02*
X478631Y169925D01*
X478620Y175561D02*
X478631Y169925D01*
X466459Y172999D02*
X463671Y175787D01*
X501676Y154926D02*
X516760Y139842D01*
X470000Y255000D02*
X463671Y248671D01*
X463671Y248485D02*
X463671Y175787D01*
X463671Y248485D02*
X463671Y248671D01*
X554527Y139842D02*
X516760Y139842D01*
X491085Y154926D02*
X501676Y154926D01*
X470000Y275000D02*
X460120Y265120D01*
X414527Y147185D02*
X429150Y161807D01*
X460120Y161807D02*
X460120Y265120D01*
X414527Y139842D02*
X414527Y147185D01*
X392829Y255625D02*
X392829Y175625D01*
X302027Y125834D02*
X302027Y173334D01*
X393239Y165896D02*
X398239Y170896D01*
X83846Y4960D02*
X42369Y46436D01*
X45227Y95669D02*
X42369Y92810D01*
X45227Y114489D02*
X45227Y114489D01*
X440000Y255000D02*
X428617Y243617D01*
X398239Y232275D02*
X398239Y170896D01*
X462018Y60834D02*
X462018Y108334D01*
X462018Y4960D02*
X83846Y4960D01*
X42369Y92810D02*
X42369Y46436D01*
X45227Y95669D02*
X45227Y114489D01*
X428617Y239775D02*
X428617Y243617D01*
X514777Y95000D02*
X487600Y122177D01*
X435000Y182499D02*
X435000Y134999D01*
X487600Y122500D02*
X487600Y122177D01*
X547600Y95000D02*
X514777Y95000D01*
X347500Y205000D02*
X347500Y182499D01*
X300000Y85000D02*
X297499Y87500D01*
X297499Y205000D01*
X297500Y205000D02*
X297499Y205000D01*
X218117Y240224D02*
X227275Y249382D01*
X433347Y254197D02*
X433298Y254246D01*
X249775Y274711D02*
X262631Y261854D01*
X456726Y298273D02*
X456700Y298246D01*
X433347Y254197D02*
X427500Y248350D01*
X440000Y315000D02*
X433298Y308298D01*
X440000Y315000D02*
X456726Y298273D01*
X456700Y189581D02*
X456700Y298246D01*
X227275Y259165D02*
X227275Y249382D01*
X262631Y257211D02*
X262631Y261854D01*
X433298Y301626D02*
X433298Y254246D01*
X433298Y301626D02*
X433298Y308298D01*
X560000Y170000D02*
X560000Y187500D01*
X583000Y264499D02*
X583000Y232500D01*
X433672Y234831D02*
X433672Y234831D01*
X436448Y240000D02*
X433672Y237223D01*
X562500Y252480D02*
X562578Y252402D01*
X423660Y234809D02*
X429424Y234831D01*
X495090Y240000D02*
X504990Y249900D01*
X560000Y210000D02*
X562578Y212578D01*
X545000Y242500D02*
X537599Y249900D01*
X415000Y280000D02*
X423650Y288650D01*
X433672Y237223D02*
X433672Y234831D01*
X453350Y240000D02*
X436448Y240000D01*
X433672Y234831D02*
X429424Y234831D01*
X562578Y252402D02*
X562578Y212578D01*
X423650Y288650D02*
X423650Y240605D01*
X504990Y249900D02*
X537599Y249900D01*
X423660Y234809D02*
X423650Y240605D01*
X413502Y196900D02*
X404949Y205453D01*
X585111Y222795D02*
X584228Y223678D01*
X512499Y237574D02*
X522538Y247613D01*
X550000Y214450D02*
X559228Y223678D01*
X535000Y242500D02*
X529886Y247613D01*
X415000Y290000D02*
X404949Y279949D01*
X600496Y222795D02*
X585111Y222795D01*
X512499Y215274D02*
X512499Y237574D01*
X404949Y205453D02*
X404949Y279949D01*
X522538Y247613D02*
X529886Y247613D01*
X550000Y210000D02*
X550000Y214450D01*
X453350Y250054D02*
X453350Y272554D01*
X461379Y323126D02*
X454661Y329843D01*
X470000Y305000D02*
X461379Y313620D01*
X327500Y205000D02*
X333649Y211149D01*
X386150Y232500D02*
X386150Y302500D01*
X381379Y329843D02*
X454661Y329843D01*
X461379Y323126D02*
X461379Y313620D01*
X333649Y232500D02*
X333649Y211149D01*
X369761Y99999D02*
X337500Y132260D01*
X373443Y99999D02*
X369761Y99999D01*
X337500Y205000D02*
X337500Y132260D01*
X307500Y182500D02*
X315000Y174999D01*
X315000Y164999D01*
X307500Y205000D02*
X307500Y182500D01*
X287500Y117599D02*
X287400Y117499D01*
X287500Y205000D02*
X287500Y117599D01*
X42399Y322362D02*
X52262Y312500D01*
X20000Y345000D02*
X42399Y322600D01*
X84999Y312500D02*
X77499Y312500D01*
X52262Y312500D01*
X42399Y322362D02*
X42399Y322600D01*
X20000Y275000D02*
X29999Y284999D01*
X84165Y285000D02*
X29999Y284999D01*
X130000Y273672D02*
X100177Y243849D01*
X80847Y243849D02*
X100177Y243849D01*
X130000Y273672D02*
X130000Y275000D01*
X20000Y149418D02*
X34999Y164418D01*
X34999Y245750D01*
X20000Y85000D02*
X20000Y149418D01*
X97378Y85000D02*
X117499Y105121D01*
X117499Y200850D02*
X117499Y105121D01*
X90000Y85000D02*
X97378Y85000D01*
X130000Y188803D02*
X160000Y158803D01*
X160000Y144758D01*
X130000Y189951D02*
X130000Y188803D01*
X160000Y85000D02*
X160000Y144758D01*
X130000Y235000D02*
X130000Y189951D01*
X519718Y180281D02*
X530000Y170000D01*
X519718Y186231D02*
X519718Y180281D01*
X155000Y205000D02*
X155000Y182499D01*
X302500Y180816D02*
X301760Y180077D01*
X347500Y228702D02*
X337500Y238702D01*
X302500Y228702D02*
X302500Y180816D01*
X337500Y238702D02*
X337499Y239200D01*
X134527Y139842D02*
X134527Y149842D01*
X274527Y215423D02*
X311379Y252275D01*
X274527Y139842D02*
X274527Y215423D01*
X399527Y161807D02*
X418302Y180582D01*
X418302Y197275D02*
X418302Y180582D01*
X348125Y335000D02*
X310056Y373068D01*
X298735Y373068D02*
X291456Y380347D01*
X298735Y373068D02*
X310056Y373068D01*
X291456Y380347D02*
X291456Y381099D01*
X343543Y332500D02*
X340193Y335850D01*
X281456Y365100D02*
X310707Y335850D01*
X318956Y335850D02*
X340193Y335850D01*
X318956Y335850D02*
X310707Y335850D01*
X281456Y381099D02*
X281456Y365100D01*
X375224Y328879D02*
X361899Y342203D01*
X329709Y343879D02*
X307489Y366099D01*
X271456Y381099D02*
X273956Y378599D01*
X361899Y343879D02*
X361899Y342203D01*
X301351Y366099D02*
X307489Y366099D01*
X297291Y366099D02*
X301351Y366099D01*
X273956Y366099D02*
X273956Y378599D01*
X335224Y332500D02*
X334125Y333599D01*
X284123Y333599D02*
X261456Y356266D01*
X284123Y333599D02*
X334125Y333599D01*
X261456Y370812D02*
X261456Y356266D01*
X261456Y370812D02*
X261456Y381099D01*
X191456Y381099D02*
X196169Y376386D01*
X196169Y333599D02*
X196169Y376386D01*
X206169Y312564D02*
X215134Y303599D01*
X310000Y290000D02*
X299999Y300000D01*
X201456Y381099D02*
X206169Y376386D01*
X261806Y303599D02*
X215134Y303599D01*
X274999Y300000D02*
X299999Y300000D01*
X206169Y312564D02*
X206169Y376386D01*
X320000Y290000D02*
X302499Y307500D01*
X211456Y337500D02*
X241456Y307500D01*
X273125Y307500D02*
X302499Y307500D01*
X211456Y381099D02*
X211456Y337500D01*
X265156Y280847D02*
X265234Y280925D01*
X290000Y265000D02*
X274074Y280925D01*
X270000Y320000D02*
X265156Y315156D01*
X265156Y280847D02*
X265156Y280847D01*
X274074Y280925D02*
X265234Y280925D01*
X265156Y299729D02*
X265156Y315156D01*
X540000Y182381D02*
X572500Y214881D01*
X572500Y344725D02*
X572500Y214881D01*
X540000Y170000D02*
X540000Y182381D01*
X250000Y320000D02*
X250000Y342500D01*
X440000Y85000D02*
X440000Y190000D01*
X396937Y301373D02*
X399794Y304231D01*
X388299Y166003D02*
X401802Y152499D01*
X245705Y225224D02*
X250706Y220224D01*
X265981Y264018D02*
X271831Y258168D01*
X250000Y279999D02*
X265981Y264018D01*
X415000Y214200D02*
X408299Y207499D01*
X374999Y257500D02*
X374999Y270000D01*
X405217Y152499D02*
X401802Y152499D01*
X421451Y304231D02*
X399794Y304231D01*
X328727Y255625D02*
X328727Y247499D01*
X374999Y257500D02*
X368727Y257500D01*
X388299Y209149D02*
X388299Y166003D01*
X271831Y247499D02*
X271831Y258168D01*
X374999Y237499D02*
X374999Y257500D01*
X209371Y225224D02*
X245705Y225224D01*
X265981Y219999D02*
X265981Y264018D01*
X415000Y240000D02*
X415000Y214200D01*
X250000Y290000D02*
X250000Y279999D01*
X181456Y380318D02*
X153638Y352500D01*
X96199Y346272D02*
X104736Y352500D01*
X137124Y352500D02*
X104736Y352500D01*
X137124Y352500D02*
X153638Y352500D01*
X181456Y380318D02*
X181456Y381099D01*
X90000Y330000D02*
X90000Y337763D01*
X96199Y346272D02*
X90000Y337763D01*
X518931Y161831D02*
X510352Y170410D01*
X473860Y244999D02*
X510352Y208507D01*
X560195Y141989D02*
X540352Y161831D01*
X554527Y120157D02*
X560195Y125825D01*
X510352Y208507D02*
X510352Y170410D01*
X518931Y161831D02*
X540352Y161831D01*
X470520Y244999D02*
X473860Y244999D01*
X560195Y141989D02*
X560195Y125825D01*
X470520Y244999D02*
X470000Y245000D01*
X282738Y218789D02*
X314756Y250807D01*
X305224Y263447D02*
X314756Y253916D01*
X89940Y135677D02*
X99940Y145677D01*
X282738Y145677D02*
X282738Y218789D01*
X314756Y250807D02*
X314756Y253916D01*
X114149Y145677D02*
X99940Y145677D01*
X334797Y236065D02*
X334874Y236141D01*
X334797Y236065D02*
X320361Y250502D01*
X322260Y283565D02*
X320361Y281665D01*
X326655Y283565D02*
X326655Y283565D01*
X334798Y286216D02*
X332147Y283565D01*
X351772Y219242D02*
X334874Y236141D01*
X357440Y120157D02*
X351772Y125825D01*
X310000Y320000D02*
X334798Y295201D01*
X334797Y236065D02*
X334797Y236065D01*
X320361Y281665D02*
X320361Y250502D01*
X326655Y283565D02*
X322260Y283565D01*
X326655Y283565D02*
X332147Y283565D01*
X334798Y286216D02*
X334798Y295201D01*
X351772Y219242D02*
X351772Y125825D01*
X365377Y159485D02*
X378240Y146622D01*
X402877Y146622D02*
X402877Y146622D01*
X345000Y286438D02*
X365377Y266061D01*
X497440Y120157D02*
X482307Y135291D01*
X320000Y320000D02*
X345000Y294999D01*
X365377Y266061D02*
X365377Y159485D01*
X378240Y146622D02*
X402877Y146622D01*
X482307Y136622D02*
X482307Y146622D01*
X345000Y286438D02*
X345000Y294999D01*
X482307Y136622D02*
X482307Y135291D01*
X202499Y329174D02*
X199087Y325762D01*
X217440Y120157D02*
X199087Y138510D01*
X202499Y337500D02*
X202499Y329174D01*
X199087Y325762D02*
X199087Y138510D01*
X311456Y381099D02*
X359999Y332555D01*
X359999Y323956D01*
X360000Y320000D02*
X359999Y323956D01*
X565850Y249634D02*
X565850Y249634D01*
X565850Y267134D02*
X559138Y260422D01*
X567126Y220328D02*
X565850Y221605D01*
X579445Y192814D02*
X580850Y194219D01*
X560476Y245081D02*
X559138Y246420D01*
X399999Y255625D02*
X403049Y252576D01*
X557435Y227379D02*
X560476Y230421D01*
X614419Y157795D02*
X579400Y192814D01*
X535000Y232500D02*
X540120Y227379D01*
X565850Y249634D02*
X565850Y267134D01*
X565850Y249634D02*
X565850Y221605D01*
X559138Y260422D02*
X559138Y260513D01*
X580850Y205314D02*
X580850Y194219D01*
X579400Y192814D02*
X579445Y192814D01*
X559138Y246420D02*
X559138Y260513D01*
X403049Y178125D02*
X403049Y252576D01*
X560476Y245081D02*
X560476Y230421D01*
X557435Y227379D02*
X540120Y227379D01*
X615000Y157795D02*
X614419Y157795D01*
X107500Y336665D02*
X112499Y331665D01*
X107500Y344165D02*
X107500Y336665D01*
X117499Y295962D02*
X96537Y275000D01*
X117499Y297965D02*
X117499Y295962D01*
X92500Y275000D02*
X96537Y275000D01*
X50000Y275000D02*
X92500Y275000D01*
X50000Y205000D02*
X68949Y223949D01*
X68949Y258668D02*
X68949Y223949D01*
X220000Y254087D02*
X204340Y238428D01*
X150000Y55118D02*
X150000Y156665D01*
X204340Y156665D02*
X204340Y238428D01*
X220000Y259165D02*
X220000Y254087D01*
X50000Y185749D02*
X38349Y197399D01*
X172499Y260156D02*
X172499Y229165D01*
X50000Y85000D02*
X50000Y185749D01*
X120000Y188627D02*
X121372Y190000D01*
X120000Y85000D02*
X120000Y188627D01*
X236760Y159116D02*
X239390Y161746D01*
X207607Y102500D02*
X236760Y131653D01*
X177249Y83222D02*
X196527Y102500D01*
X161534Y55000D02*
X177249Y70715D01*
X419089Y175900D02*
X440000Y196811D01*
X147399Y45000D02*
X157400Y55000D01*
X239390Y161746D02*
X239452Y161746D01*
X236760Y159116D02*
X236760Y131653D01*
X207607Y102500D02*
X196527Y102500D01*
X177249Y83222D02*
X177249Y70715D01*
X157400Y55000D02*
X161534Y55000D01*
X419089Y166182D02*
X419089Y175900D01*
X440000Y205000D02*
X440000Y196811D01*
X90000Y45000D02*
X147399Y45000D01*
X31649Y247247D02*
X49755Y265353D01*
X31649Y176760D02*
X31704Y176704D01*
X126981Y279999D02*
X112334Y265353D01*
X188548Y279999D02*
X191283Y282734D01*
X185000Y295000D02*
X191283Y288716D01*
X20000Y165000D02*
X31704Y176704D01*
X112334Y265353D02*
X49755Y265353D01*
X31649Y247247D02*
X31649Y176760D01*
X126981Y279999D02*
X188548Y279999D01*
X191283Y282734D02*
X191283Y288716D01*
X20000Y235000D02*
X27981Y242981D01*
X84165Y317724D02*
X74165Y317724D01*
X27981Y264518D02*
X27981Y242981D01*
X124999Y339299D02*
X111132Y325431D01*
X124999Y342931D02*
X128404Y346336D01*
X84863Y307500D02*
X95000Y317636D01*
X185000Y335000D02*
X173663Y346336D01*
X20000Y305000D02*
X22500Y307500D01*
X107500Y325431D02*
X111132Y325431D01*
X95000Y322500D02*
X95000Y317636D01*
X124999Y339299D02*
X124999Y342931D01*
X128404Y346336D02*
X173663Y346336D01*
X84863Y307500D02*
X22500Y307500D01*
X387687Y216159D02*
X368727Y197200D01*
X300470Y74518D02*
X307981Y82030D01*
X160000Y45063D02*
X189455Y74518D01*
X307981Y139699D02*
X307981Y82030D01*
X331227Y197200D02*
X331227Y139699D01*
X387687Y219700D02*
X387687Y216159D01*
X300470Y74518D02*
X189455Y74518D01*
X160000Y45000D02*
X160000Y45063D01*
X245325Y92981D02*
X254056Y101711D01*
X197981Y92981D02*
X190000Y85000D01*
X254056Y224775D02*
X254056Y101711D01*
X245325Y92981D02*
X197981Y92981D01*
X82018Y87962D02*
X84358Y90302D01*
X82018Y61461D02*
X90498Y52981D01*
X105850Y51768D02*
X104637Y52981D01*
X180850Y186043D02*
X193224Y198417D01*
X188767Y319775D02*
X193224Y315318D01*
X155000Y325000D02*
X160224Y319775D01*
X84358Y90302D02*
X84358Y186043D01*
X82018Y87962D02*
X82018Y61461D01*
X91097Y52981D02*
X90498Y52981D01*
X91097Y52981D02*
X104637Y52981D01*
X193224Y198417D02*
X193224Y315318D01*
X188767Y319775D02*
X160224Y319775D01*
X197499Y106650D02*
X196867Y107282D01*
X188767Y329775D02*
X194539Y327235D01*
X155000Y335000D02*
X160224Y329775D01*
X196867Y107282D02*
X196867Y321675D01*
X188767Y329775D02*
X160224Y329775D01*
X194539Y327235D02*
X196867Y321675D01*
X239394Y271478D02*
X259729Y251144D01*
X324999Y192034D02*
X320000Y197034D01*
X259729Y251144D02*
X259729Y197034D01*
X227500Y271478D02*
X239394Y271478D01*
X324999Y125834D02*
X324999Y192034D01*
X5430Y271408D02*
X27259Y293237D01*
X116007Y301315D02*
X107930Y293237D01*
X120430Y301315D02*
X121007Y300737D01*
X155000Y305000D02*
X150737Y300737D01*
X114999Y58507D02*
X114999Y76579D01*
X5430Y76579D02*
X5430Y271408D01*
X27259Y293237D02*
X107930Y293237D01*
X120430Y301315D02*
X116007Y301315D01*
X121007Y300737D02*
X150737Y300737D01*
X292868Y173815D02*
X290850Y175834D01*
X98515Y224700D02*
X128099Y195115D01*
X73042Y246828D02*
X95171Y224700D01*
X110434Y276284D02*
X122499Y288350D01*
X352600Y114473D02*
X382073Y84999D01*
X238350Y176727D02*
X214488Y176727D01*
X128099Y182200D02*
X128099Y195115D01*
X292868Y158334D02*
X292868Y173815D01*
X98515Y224700D02*
X95171Y224700D01*
X73042Y252200D02*
X73042Y246828D01*
X315368Y125834D02*
X315368Y158334D01*
X352600Y114473D02*
X322868Y114473D01*
X110434Y268703D02*
X110434Y276284D01*
X385581Y85000D02*
X382073Y84999D01*
X400000Y85000D02*
X385581Y85000D01*
X227302Y263965D02*
X231831Y259435D01*
X362018Y63926D02*
X319518Y106426D01*
X370000Y45000D02*
X362018Y52981D01*
X269331Y231074D02*
X269331Y192234D01*
X231831Y231074D02*
X231831Y259435D01*
X319518Y192234D02*
X319518Y106426D01*
X220000Y263965D02*
X227302Y263965D01*
X362018Y63926D02*
X362018Y52981D01*
X155000Y275000D02*
X155000Y275000D01*
X146624Y181004D02*
X158638Y168990D01*
X146624Y266624D02*
X155000Y275000D01*
X224074Y168990D02*
X250706Y168990D01*
X161900Y168990D02*
X158638Y168990D01*
X445944Y96649D02*
X445944Y171649D01*
X146624Y181004D02*
X146624Y266624D01*
X167634Y229562D02*
X163620Y233575D01*
X397499Y55000D02*
X377648Y74851D01*
X163620Y256754D02*
X163620Y256754D01*
X163620Y256819D02*
X155440Y264999D01*
X377648Y75000D02*
X377648Y74851D01*
X169149Y219562D02*
X169149Y77062D01*
X167699Y229562D02*
X167634Y229562D01*
X163620Y256754D02*
X163620Y233575D01*
X163620Y256754D02*
X163620Y256819D01*
X155000Y265000D02*
X155440Y264999D01*
X470000Y205000D02*
X470000Y117499D01*
X482593Y178900D02*
X479259Y178900D01*
X482499Y114870D02*
X476649Y120720D01*
X476649Y176291D02*
X479259Y178900D01*
X495000Y191307D02*
X482593Y178900D01*
X510000Y45000D02*
X482500Y72500D01*
X476649Y176291D02*
X476649Y120720D01*
X495000Y197113D02*
X495000Y191307D01*
X482499Y114870D02*
X482500Y72500D01*
X610000Y85000D02*
X577500Y117499D01*
X577500Y195711D01*
X572018Y173877D02*
X563620Y182275D01*
X580000Y49037D02*
X572018Y57018D01*
X470000Y235000D02*
X481120Y223879D01*
X572018Y57018D02*
X572018Y173877D01*
X481120Y182275D02*
X481120Y223879D01*
X580000Y45000D02*
X580000Y49037D01*
G54D19*
X177851Y233152D02*
X177851Y233152D01*
X615000Y179704D02*
X621594Y173110D01*
X615000Y132204D02*
X621594Y138799D01*
X395000Y282500D02*
X407499Y294999D01*
X404685Y139842D02*
X414527Y130000D01*
X260000Y320000D02*
X255590Y324409D01*
X240000Y326231D02*
X246268Y332500D01*
X212500Y215000D02*
X210322Y212822D01*
X185000Y245000D02*
X177851Y237851D01*
X161456Y381099D02*
X146456Y366099D01*
X174563Y225000D02*
X177851Y228288D01*
X76835Y340000D02*
X64999Y328164D01*
X80000Y340000D02*
X106099Y366099D01*
X177851Y233152D02*
X177851Y228288D01*
X407499Y295000D02*
X407499Y294999D01*
X621594Y138799D02*
X621594Y173110D01*
X64999Y325000D02*
X64999Y328164D01*
X177851Y233152D02*
X177851Y237851D01*
X210322Y139842D02*
X210322Y212822D01*
X141645Y130000D02*
X141645Y97499D01*
X146456Y366099D02*
X106099Y366099D01*
X255590Y332500D02*
X255590Y324409D01*
X555000Y242500D02*
X555000Y315000D01*
X470000Y325000D02*
X470000Y335000D01*
X470000Y315000D02*
X470000Y325000D01*
X357440Y139842D02*
X404685Y139842D01*
X240000Y320000D02*
X240000Y326231D01*
X237500Y265000D02*
X237500Y250000D01*
X155000Y225000D02*
X174563Y225000D01*
X155000Y215000D02*
X155000Y225000D01*
X80000Y340000D02*
X76835Y340000D01*
X474090Y340625D02*
X480215Y334500D01*
X423102Y336768D02*
X426959Y340625D01*
X387881Y336768D02*
X367881Y356768D01*
X427656Y290000D02*
X427500Y290156D01*
X330000Y262499D02*
X357500Y234999D01*
X525000Y215625D02*
X530000Y210625D01*
X305622Y356768D02*
X295187Y356768D01*
X480215Y276268D02*
X480215Y334500D01*
X474090Y340625D02*
X426959Y340625D01*
X363731Y356768D02*
X367881Y356768D01*
X357500Y217500D02*
X357500Y234999D01*
X427500Y302499D02*
X427500Y290156D01*
X330000Y262499D02*
X330000Y265000D01*
X530000Y210000D02*
X540000Y210000D01*
X530000Y210000D02*
X530000Y210625D01*
X525000Y232500D02*
X525000Y215625D01*
X357500Y205000D02*
X357500Y217500D01*
X130000Y305000D02*
X130000Y342559D01*
X590000Y255000D02*
X595314Y260314D01*
X586318Y301467D02*
X595314Y292471D01*
X595314Y260314D01*
X586318Y340000D02*
X586318Y301467D01*
X100000Y300000D02*
X100000Y340000D01*
G54D23*
X491085Y154926D03*
X466459Y172999D03*
X429150Y161807D03*
X460120Y161807D03*
X392829Y255625D03*
X392829Y175625D03*
X302027Y125834D03*
X302027Y173334D03*
X428617Y239775D03*
X45227Y114489D03*
X462018Y4960D03*
X462018Y60834D03*
X462018Y108334D03*
X393239Y165896D03*
X398239Y232275D03*
X555000Y315000D03*
X237500Y250000D03*
X141645Y130000D03*
X141645Y97499D03*
X407499Y295000D03*
X210322Y139842D03*
X64999Y325000D03*
X246268Y332500D03*
X255590Y332500D03*
X547600Y95000D03*
X487600Y122500D03*
X347500Y182499D03*
X435000Y182499D03*
X435000Y134999D03*
X560000Y187500D03*
X456700Y189581D03*
X249775Y274711D03*
X262631Y257211D03*
X227275Y259165D03*
X218117Y240224D03*
X427500Y248350D03*
X583000Y264499D03*
X583000Y232500D03*
X495090Y240000D03*
X453350Y240000D03*
X562500Y252480D03*
X413502Y196900D03*
X559228Y223678D03*
X584228Y223678D03*
X600496Y222795D03*
X512499Y215274D03*
X453350Y250054D03*
X453350Y272554D03*
X381379Y329843D03*
X333649Y232500D03*
X386150Y232500D03*
X386150Y302500D03*
X373443Y99999D03*
X315000Y164999D03*
X287400Y117499D03*
X84999Y312500D03*
X84165Y285000D03*
X80847Y243849D03*
X34999Y245750D03*
X117499Y200850D03*
X519718Y186231D03*
X155000Y182499D03*
X134527Y149842D03*
X301760Y180077D03*
X337499Y239200D03*
X347500Y228702D03*
X302500Y228702D03*
X311379Y252275D03*
X399527Y161807D03*
X418302Y197275D03*
X348125Y335000D03*
X343543Y332500D03*
X273956Y366099D03*
X297291Y366099D03*
X375224Y328879D03*
X361899Y343879D03*
X329709Y343879D03*
X335224Y332500D03*
X196169Y333599D03*
X274999Y300000D03*
X261806Y303599D03*
X273125Y307500D03*
X241456Y307500D03*
X265156Y299729D03*
X265156Y280847D03*
X572500Y344725D03*
X250000Y342500D03*
X130000Y342559D03*
X387881Y336768D03*
X363731Y356768D03*
X305622Y356768D03*
X295187Y356768D03*
X480215Y276268D03*
X423102Y336768D03*
X427656Y290000D03*
X427500Y302499D03*
X440000Y190000D03*
X374999Y270000D03*
X396937Y301373D03*
X421451Y304231D03*
X408299Y207499D03*
X388299Y209149D03*
X405217Y152499D03*
X271831Y247499D03*
X374999Y237499D03*
X368727Y257500D03*
X328727Y255625D03*
X328727Y247499D03*
X209371Y225224D03*
X250706Y220224D03*
X265981Y219999D03*
X305224Y263447D03*
X89940Y135677D03*
X114149Y145677D03*
X282738Y145677D03*
X482307Y146622D03*
X402877Y146622D03*
X202499Y337500D03*
X580850Y205314D03*
X567126Y220328D03*
X399999Y255625D03*
X403049Y178125D03*
X107500Y344165D03*
X112499Y331665D03*
X117499Y297965D03*
X68949Y258668D03*
X220000Y259165D03*
X204340Y156665D03*
X150000Y55118D03*
X150000Y156665D03*
X38349Y197399D03*
X172499Y260156D03*
X172499Y229165D03*
X121372Y190000D03*
X419089Y166182D03*
X239452Y161746D03*
X84165Y317724D03*
X74165Y317724D03*
X27981Y264518D03*
X95000Y322500D03*
X107500Y325431D03*
X387687Y219700D03*
X368727Y197200D03*
X331227Y197200D03*
X331227Y139699D03*
X307981Y139699D03*
X254056Y224775D03*
X180850Y186043D03*
X105850Y51768D03*
X84358Y186043D03*
X197499Y106650D03*
X324999Y125834D03*
X320000Y197034D03*
X227500Y271478D03*
X259729Y197034D03*
X114999Y58507D03*
X5430Y76579D03*
X114999Y76579D03*
X122499Y288350D03*
X110434Y268703D03*
X73042Y252200D03*
X128099Y182200D03*
X322868Y114473D03*
X315368Y125834D03*
X315368Y158334D03*
X292868Y158334D03*
X290850Y175834D03*
X238350Y176727D03*
X214488Y176727D03*
X220000Y263965D03*
X231831Y231074D03*
X269331Y231074D03*
X319518Y192234D03*
X269331Y192234D03*
X161900Y168990D03*
X224074Y168990D03*
X250706Y168990D03*
X445944Y96649D03*
X445944Y171649D03*
X167699Y229562D03*
X169149Y219562D03*
X169149Y77062D03*
X397499Y55000D03*
X377648Y75000D03*
X470000Y117499D03*
X495000Y197113D03*
X577500Y195711D03*
X481120Y182275D03*
X563620Y182275D03*
G54D24*
X132100Y166500D03*
X498100Y166500D03*
X498100Y383100D03*
X131900Y383100D03*
G54D25*
X357500Y205000D03*
G54D26*
X130000Y305000D03*
X415000Y310000D03*
G54D27*
X80000Y300000D03*
G54D28*
X440000Y205000D03*
G54D29*
X370000Y290000D03*
G54D30*
X185000Y335000D03*
G54D31*
X590000Y245000D03*
X590000Y255000D03*
X590000Y265000D03*
X590000Y275000D03*
X590000Y285000D03*
G54D32*
X470000Y275000D03*
X470000Y265000D03*
X470000Y255000D03*
X470000Y245000D03*
X470000Y235000D03*
X470000Y225000D03*
X470000Y215000D03*
X470000Y205000D03*
X470000Y315000D03*
X470000Y305000D03*
X470000Y295000D03*
X470000Y285000D03*
X440000Y215000D03*
X440000Y225000D03*
X440000Y235000D03*
X440000Y245000D03*
X440000Y255000D03*
X440000Y265000D03*
X440000Y275000D03*
X440000Y285000D03*
X440000Y295000D03*
X440000Y305000D03*
X440000Y315000D03*
X440000Y325000D03*
X440000Y335000D03*
X470000Y335000D03*
X470000Y325000D03*
G54D33*
X300000Y320000D03*
X310000Y320000D03*
X320000Y320000D03*
X330000Y320000D03*
X340000Y320000D03*
X350000Y320000D03*
X360000Y320000D03*
X370000Y320000D03*
X260000Y320000D03*
X270000Y320000D03*
X280000Y320000D03*
X290000Y320000D03*
X360000Y290000D03*
X350000Y290000D03*
X340000Y290000D03*
X330000Y290000D03*
X320000Y290000D03*
X310000Y290000D03*
X300000Y290000D03*
X290000Y290000D03*
X280000Y290000D03*
X270000Y290000D03*
X260000Y290000D03*
X250000Y290000D03*
X240000Y290000D03*
X240000Y320000D03*
X250000Y320000D03*
G54D34*
X155000Y265000D03*
X155000Y275000D03*
X155000Y285000D03*
X155000Y295000D03*
X155000Y305000D03*
X155000Y315000D03*
X155000Y325000D03*
X155000Y335000D03*
X155000Y225000D03*
X155000Y235000D03*
X155000Y245000D03*
X155000Y255000D03*
X185000Y325000D03*
X185000Y315000D03*
X185000Y305000D03*
X185000Y295000D03*
X185000Y285000D03*
X185000Y275000D03*
X185000Y265000D03*
X185000Y255000D03*
X185000Y245000D03*
X185000Y235000D03*
X185000Y225000D03*
X185000Y215000D03*
X185000Y205000D03*
X155000Y205000D03*
X155000Y215000D03*
G54D35*
X290000Y265000D03*
X330000Y265000D03*
G54D36*
X560000Y170000D03*
X560000Y210000D03*
X550000Y170000D03*
X550000Y210000D03*
X540000Y170000D03*
X540000Y210000D03*
X530000Y170000D03*
X530000Y210000D03*
G54D37*
X100000Y340000D03*
X90000Y330000D03*
X80000Y340000D03*
G54D38*
X525000Y232500D03*
X535000Y232500D03*
X545000Y232500D03*
X555000Y232500D03*
X525000Y242500D03*
X535000Y242500D03*
X545000Y242500D03*
X555000Y242500D03*
G54D39*
X237500Y265000D03*
X277500Y265000D03*
G54D40*
X554527Y120157D03*
X554527Y130000D03*
X554527Y139842D03*
X497440Y120157D03*
X497440Y139842D03*
X414527Y120157D03*
X414527Y130000D03*
X414527Y139842D03*
X357440Y120157D03*
X357440Y139842D03*
X274527Y120157D03*
X274527Y130000D03*
X274527Y139842D03*
X217440Y120157D03*
X217440Y139842D03*
X134527Y120157D03*
X134527Y130000D03*
X134527Y139842D03*
X77440Y120157D03*
X77440Y139842D03*
X395000Y282500D03*
X395000Y322500D03*
G54D41*
X212500Y255000D03*
X212500Y215000D03*
G54D42*
X615000Y179704D03*
X615000Y205295D03*
G54D43*
X615000Y157795D03*
X615000Y132204D03*
G54D44*
X610728Y340000D03*
X598917Y321496D03*
G54D45*
X161456Y381099D03*
X171456Y381099D03*
X181456Y381099D03*
X191456Y381099D03*
X201456Y381099D03*
X211456Y381099D03*
X221456Y381099D03*
X231456Y381099D03*
X241456Y381099D03*
X251456Y381099D03*
X261456Y381099D03*
X271456Y381099D03*
X291456Y381099D03*
X301456Y381099D03*
X311456Y381099D03*
G54D46*
X281456Y381099D03*
G54D47*
X586318Y340000D03*
G54D48*
X337500Y205000D03*
X327500Y205000D03*
X317500Y205000D03*
X307500Y205000D03*
X297500Y205000D03*
X287500Y205000D03*
X347500Y205000D03*
G54D49*
X130000Y285000D03*
X130000Y275000D03*
X130000Y265000D03*
X130000Y255000D03*
X130000Y245000D03*
X130000Y235000D03*
X130000Y295000D03*
X415000Y290000D03*
X415000Y280000D03*
X415000Y270000D03*
X415000Y260000D03*
X415000Y250000D03*
X415000Y240000D03*
X415000Y300000D03*
G54D50*
X90000Y300000D03*
X100000Y300000D03*
G54D51*
X20000Y345000D03*
X50000Y345000D03*
X20000Y325000D03*
X20000Y305000D03*
X20000Y275000D03*
X50000Y275000D03*
X20000Y255000D03*
X20000Y235000D03*
X20000Y205000D03*
X50000Y205000D03*
X20000Y185000D03*
X20000Y165000D03*
X20000Y85000D03*
X50000Y85000D03*
X20000Y65000D03*
X20000Y45000D03*
X90000Y85000D03*
X120000Y85000D03*
X90000Y65000D03*
X90000Y45000D03*
X160000Y85000D03*
X190000Y85000D03*
X160000Y65000D03*
X160000Y45000D03*
X230000Y85000D03*
X260000Y85000D03*
X230000Y65000D03*
X230000Y45000D03*
X300000Y85000D03*
X330000Y85000D03*
X300000Y65000D03*
X300000Y45000D03*
X370000Y85000D03*
X400000Y85000D03*
X370000Y65000D03*
X370000Y45000D03*
X440000Y85000D03*
X470000Y85000D03*
X440000Y65000D03*
X440000Y45000D03*
X510000Y85000D03*
X540000Y85000D03*
X510000Y65000D03*
X510000Y45000D03*
X580000Y85000D03*
X610000Y85000D03*
X580000Y65000D03*
X580000Y45000D03*
G54D52*
X590000Y235000D03*
G54D53*
X525000Y106377D03*
X525000Y153622D03*
X385000Y106377D03*
X385000Y153622D03*
X245000Y106377D03*
X245000Y153622D03*
X105000Y106377D03*
X105000Y153622D03*
M02*
